<svg xmlns="http://www.w3.org/2000/svg" viewBox="-161 -24 322 208" width="322" height="208"><title>Rotary knob</title><style>
.o{fill:#fff;stroke:#111;stroke-width:2;stroke-linejoin:round}
.k{fill:#111;stroke:#111;stroke-width:2;stroke-linejoin:round}
.t{fill:none;stroke:#111;stroke-width:1.2;stroke-linecap:round;stroke-linejoin:round}
.d{fill:none;stroke:#111;stroke-width:1.2;stroke-dasharray:4 5;stroke-linecap:round;stroke-linejoin:round}
.m{fill:none;stroke:#111;stroke-width:2;stroke-linecap:round;stroke-linejoin:round}
.f{fill:#111;stroke:none}
.lbl{fill:#111;font-family:'Helvetica Neue',Helvetica,Arial,sans-serif;font-weight:700}
</style>
<polygon class="o" points="147.2,85.0 0.0,170.0 0.0,160.0 147.2,75.0"/>
<polygon class="o" points="-147.2,85.0 0.0,170.0 0.0,160.0 -147.2,75.0"/>
<polygon class="o" points="0.0,-10.0 147.2,75.0 0.0,160.0 -147.2,75.0"/>
<line class="m" x1="-40.9" y1="103.2" x2="-48.8" y2="108.6"/>
<line class="m" x1="-59.0" y1="88.8" x2="-65.9" y2="90.4"/>
<line class="m" x1="-63.3" y1="71.2" x2="-70.6" y2="70.7"/>
<line class="m" x1="-52.8" y1="54.4" x2="-58.9" y2="52.1"/>
<line class="m" x1="-29.9" y1="42.5" x2="-33.3" y2="38.8"/>
<line class="m" x1="-0.0" y1="38.2" x2="-0.0" y2="31.2"/>
<line class="m" x1="29.9" y1="42.5" x2="33.3" y2="38.8"/>
<line class="m" x1="52.8" y1="54.4" x2="58.9" y2="52.1"/>
<line class="m" x1="63.3" y1="71.2" x2="70.6" y2="70.7"/>
<line class="m" x1="59.0" y1="88.8" x2="65.9" y2="90.4"/>
<line class="m" x1="40.9" y1="103.2" x2="48.8" y2="108.6"/>
<path class="o" d="M-46.5,75.0 A46.54,26.87 0 0 0 46.5,75.0 L46.5,35.0 L-46.5,35.0 Z"/>
<ellipse class="o" cx="0.0" cy="35.0" rx="46.54" ry="26.87"/>
<ellipse class="t" cx="0.0" cy="35.0" rx="36.74" ry="21.21"/>
<line class="t" x1="-37.2" y1="51.1" x2="-37.2" y2="91.1"/>
<line class="t" x1="-32.6" y1="54.2" x2="-32.6" y2="94.2"/>
<line class="t" x1="-27.9" y1="56.5" x2="-27.9" y2="96.5"/>
<line class="t" x1="-23.3" y1="58.3" x2="-23.3" y2="98.3"/>
<line class="t" x1="-18.6" y1="59.6" x2="-18.6" y2="99.6"/>
<line class="t" x1="-14.0" y1="60.6" x2="-14.0" y2="100.6"/>
<line class="t" x1="-9.3" y1="61.3" x2="-9.3" y2="101.3"/>
<line class="t" x1="-4.7" y1="61.7" x2="-4.7" y2="101.7"/>
<line class="t" x1="0.0" y1="61.9" x2="0.0" y2="101.9"/>
<line class="t" x1="4.7" y1="61.7" x2="4.7" y2="101.7"/>
<line class="t" x1="9.3" y1="61.3" x2="9.3" y2="101.3"/>
<line class="t" x1="14.0" y1="60.6" x2="14.0" y2="100.6"/>
<line class="t" x1="18.6" y1="59.6" x2="18.6" y2="99.6"/>
<line class="t" x1="23.3" y1="58.3" x2="23.3" y2="98.3"/>
<line class="t" x1="27.9" y1="56.5" x2="27.9" y2="96.5"/>
<line class="t" x1="32.6" y1="54.2" x2="32.6" y2="94.2"/>
<line class="t" x1="37.2" y1="51.1" x2="37.2" y2="91.1"/>
<line class="m" x1="13.0" y1="39.0" x2="32.4" y2="45.0"/>
<ellipse class="o" cx="0.0" cy="0.0" rx="3.67" ry="2.12"/>
<ellipse class="o" cx="129.9" cy="75.0" rx="3.67" ry="2.12"/>
<ellipse class="o" cx="-129.9" cy="75.0" rx="3.67" ry="2.12"/>
<ellipse class="o" cx="0.0" cy="150.0" rx="3.67" ry="2.12"/>
</svg>
